<svg xmlns="http://www.w3.org/2000/svg" version="1.2" baseProfile="tiny-ps" viewBox="0 0 448 448" width="448" height="448">
  <title>LexLoo</title>
  <defs>
    <linearGradient id="blueGrad" x1="0" y1="0" x2="0" y2="1">
      <stop offset="0" stop-color="#8FE2F8"/>
      <stop offset="0.45" stop-color="#5DC4F7"/>
      <stop offset="1" stop-color="#2E6FE0"/>
    </linearGradient>
    <linearGradient id="orangeGrad" x1="0" y1="0" x2="0" y2="1">
      <stop offset="0" stop-color="#F7E36B"/>
      <stop offset="0.45" stop-color="#EFCB4A"/>
      <stop offset="1" stop-color="#F0A33A"/>
    </linearGradient>
  </defs>
  <rect x="0" y="0" width="448" height="448" fill="#03081B"/>
  <path fill="url(#blueGrad)" d="M112.0,78.0 L167.0,78.0 L167.0,268.0 Q169.0,268.0 186.0,273.0 Q203.0,278.0 218.5,283.0 Q234.0,288.0 236.0,293.0 Q238.0,298.0 238.5,303.0 Q239.0,308.0 239.0,313.0 Q239.0,318.0 239.0,323.0 Q239.0,328.0 236.5,333.0 Q234.0,338.0 230.0,339.0 Q226.0,340.0 222.0,339.0 Q218.0,338.0 200.5,333.0 Q183.0,328.0 166.5,323.0 Q150.0,318.0 140.0,313.0 Q130.0,308.0 125.5,303.0 Q121.0,298.0 118.5,293.0 Q116.0,288.0 114.5,283.0 Q113.0,278.0 112.5,273.0 Q112.0,268.0 112.0,173.0 L112.0,78.0 Z"/>
  <path fill="url(#orangeGrad)" d="M216.0,80.0 L270.0,80.0 L270.0,239.0 Q272.0,239.0 291.5,244.0 Q311.0,249.0 323.5,254.0 Q336.0,259.0 336.5,264.0 Q337.0,269.0 337.0,274.0 Q337.0,279.0 336.5,284.0 Q336.0,289.0 333.0,294.0 Q330.0,299.0 320.5,304.0 Q311.0,309.0 300.5,314.0 Q290.0,319.0 286.5,320.0 Q283.0,321.0 279.0,320.0 Q275.0,319.0 273.5,314.0 Q272.0,309.0 272.0,304.0 Q272.0,299.0 272.0,294.0 Q272.0,289.0 271.0,284.0 Q270.0,279.0 255.5,274.0 Q241.0,269.0 232.0,264.0 Q223.0,259.0 220.5,254.0 Q218.0,249.0 217.0,164.5 L216.0,80.0 Z"/>
</svg>
